<?xml version="1.0" encoding="UTF-8"?>
<svg id="Layer_2" data-name="Layer 2" xmlns="http://www.w3.org/2000/svg" viewBox="0 0 581.3 279.2">
  <defs>
    <style>
      .cls-1 {
        fill: #b99531;
      }

      .cls-1, .cls-2, .cls-3 {
        stroke-width: 0px;
      }

      .cls-4 {
        font-family: AlegreyaSans-Black, 'Alegreya Sans';
        font-size: 10.5px;
        font-weight: 800;
        letter-spacing: .3em;
      }

      .cls-4, .cls-2 {
        fill: #fff;
      }

      .cls-3 {
        fill: #0c533d;
      }
    </style>
  </defs>
  <g id="Layer_1-2" data-name="Layer 1">
    <g>
      <path class="cls-1" d="M420.1,227.4c-8.7-30.9,6.9-66.5-15.8-76.2-9.7-4.1-25.7-.8-27.1,12.3-1.4,13.2,13.2,22.8,12.3,41.7,0,0-14.8-1.5-28.3,4.1-2.5,8.6-8.2,19.6-21.2,27.1-.2,1.4-.4,2.9-.4,4.4-2.1,38.6,40.5,38.5,54,29.5,0,0,.6,11,18.8,7.2,18.2-3.8,15.1-24,7.7-50.1ZM387.3,252.4c-8.7,10-24.7,1.4-20.8-11.1,3.7-11.7,16.2-15.1,20.6-16.2,1.1-.3,2.2.3,2.8,1.3,2,4.1,6.5,15.6-2.6,26Z"/>
      <path class="cls-3" d="M39.3,221.2c-16.7-.3-31.4-18.9-36.2-51.3C-5.9,109.5,6,50.6,23.6,53.7c17.7,3.1,52.8,92.3,69.6,87.9s3.3-25.9-24.8-63.2c-22.1-29.5-23.4-61.8,3.8-75.4,23.7-11.9,56.2,11.9,61.6,73.5,5.5,62.1-9.1,113.4-27.2,146.7,0,0-8.8,12.8-19.4,8.2-12.2-5.3-6.8-21.6-17.5-53.7-10.7-32-30.1-40.3-34.2-32-5.3,11,18.3,20.8,25.1,45.3s-8.3,30.6-21.4,30.3Z"/>
      <path class="cls-3" d="M157.9,65.6s-12.5-1.4-12.6,24c-.1,25.4.9,55.8,41.5,48.7,0,0,2.1,10.7,16,6.7,14.8-4.3,18.2-80.7-6.6-80.1,0,0-13,.7-12.1,16.8.9,16.1,6.8,34.7-4.5,34.7-19.8,0,3.8-50.6-21.8-50.9Z"/>
      <path class="cls-3" d="M232.6,50.6c-11.1,1.1-14,14.9-7.7,41.2,9,37.8-5.4,72.3,14.6,86.9,13.7,10.1,39.1,4.9,40.9-15.3,1.8-20.2-14.1-3.1-26.2-17.7-6.8-8.2-7.7-31.2-2.2-38.3,6.3-8.2,17.4-6.2,16.3-19.4-1.1-12.7-15-8.5-20.3-15.4-6.2-7.9-2.8-23.2-15.3-22Z"/>
      <path class="cls-3" d="M287.2,63.9s-11.3-1.9-9.5,20.9c1.8,22.8-12.7,52.3,5.8,60.7,16.4,7.4,26.3-6.2,27.3-12.9s-18.3-5.7-17.5-22.1c.7-15.3,10.7-9.4,16.7-14.7,3.4-3,5.2-17.1-6-18.4-8-.9-8-13.5-16.8-13.5Z"/>
      <path class="cls-3" d="M403.6,143.9c-5.9-.4-10.1-6-8.7-11.8,1.5-6.7,2.9-17,1.2-28.3-3.1-19.9-3.8-29,4.4-36.7,12-11.3,42.3-5.2,42.2,16.1,0,19.3-22.2,22.7-26.1,6.4,0,0,11.6,55.9-13,54.2Z"/>
      <path class="cls-3" d="M462.4,26.9s-19.5-2.1-16.8,26.9c2.8,29.9,10.1,39.2,7.6,64.5-1.7,17.3-8.4,28.8,2,33.7,9.2,4.4,21.4-5.8,23.2-43,2-40.4,3.7-82.8-16-82.1Z"/>
      <path class="cls-3" d="M503.5,57.6c-7.3,0-13,6.1-12.9,13.4.2,8.6.3,22.3-.3,35.2-1,20.8,2.1,42,27.3,37.8,25.2-4.2,21.7,25.1,3.8,33.9-28.2,13.9-51.6-14.2-76.5,0-24.9,14.2-24.7,48.7,2.5,57.8,27.2,9.1,83.1-12.3,106.3-59.3,23.2-47,13.9-107.1-3.9-107.1s-15.5,13.8-8.9,28.3c5.8,12.8-3.2,25.7-16.7,21.7-19.8-5.8,1.9-61.4-20.8-61.7Z"/>
      <path class="cls-3" d="M383.5,120c-4-12.9-32.9,6-37.4-13.2,0,0,14.8,7.6,26.7,1.5,11.4-5.9,14.9-17.9,10.9-29.4-5.5-15.9-34.8-21.4-53.7-4.7-17.4,15.5-19,45.7,3.6,60.3,20,12.9,55.9,4.8,49.9-14.5ZM363.2,84.3c2,4.2-1.9,8.2-6.2,9.1s-4.9.3-6.8-.6-2.4.4-2.4-1.4c0-9.4,12.6-12.7,15.3-7Z"/>
      <path class="cls-1" d="M324.6,151.8c-12.4-.4-33.8,5.6-38.1,32-.9,5.7-1.2,10.9-1,15.8,7.5,5.2,17,14.9,19.3,31.3,4.1,1.8,8.7,2.9,13.9,3.2,25.9,1.6,39.8-19.1,40.1-43.5.2-21.2-17-38.1-34.3-38.7ZM334.1,194.5c-1.9,12-7.4,16.5-11.1,18.4-1.8.9-5.7.7-7.2-.5-3.4-2.8-7.6-8.6-6.7-20,1-12.2,9.1-20.2,12.6-22.7,1.6-1.1,3.7-1,5.1.2,3.4,2.9,8.9,14.3,7.3,24.6Z"/>
      <path class="cls-1" d="M299,231.2c-2.3-21.1-21.4-35.9-38.6-34.4-9,.7-22.2,5.4-29.3,18.1,2.5,7.6,5.3,22.1-3.2,37.3,4.4,18,17.2,28,36.4,27,25.9-1.4,37.3-23.6,34.7-47.9ZM277.3,256.2c-7.3,4.6-22.6-.5-28.2-13.1-5.8-13.1-1.3-26.6,6.3-29.5s13.6,1.8,11.4,11c-2.7,11.7,6.5,13.2,10.4,15.6,7.6,4.6,4.7,13.1,0,16.1Z"/>
      <path class="cls-1" d="M212.2,162.4c-16.4-10.2-53.4-13.3-74.3,16.6-30,42.9-5.9,84,24.3,91.7,31.5,8,71.9-9.4,66-49.1-4.7-32.4-51.9-29.1-58.6-5.5-4.9,17.3,13.7,30.3,27,22,13.3-8.3,8.3-19.4,8.3-19.4,0,0,7.1,11.8-3.8,24.6-12.2,14.3-40.8,9.8-46.6-12.9s5.1-35.2,17.5-41.7c21.9-11.4,37,7.4,48.2,1.4,14.4-7.8,1.4-21.9-8.1-27.7Z"/>
      <path class="cls-2" d="M84.2,24.2c-2.5-.7-1.9-4.4.7-4.3,6.5.1,14.1,2.3,21,9.5,7.4,7.8,11.6,18.6,14.1,29.4.6,2.7-3.3,3.8-4.2,1.2-5.6-15.2-15.2-31-31.5-35.8Z"/>
      <path class="cls-2" d="M442,202.4c0-1.4-2-1.7-2.4-.4-1.4,4-2.3,9.5.4,15,4.5,9.1,23.6,14.7,44.6,7.9,1.5-.5.9-2.7-.6-2.4-10.4,1.8-24.6,2.6-33-3.4-7.1-5.1-8.8-11.7-9-16.6Z"/>
      <g>
        <circle class="cls-3" cx="574.4" cy="64.4" r="6.8"/>
        <text class="cls-4" transform="translate(570.9 68)"><tspan x="0" y="0">R</tspan></text>
      </g>
      <path class="cls-3" d="M352.4,86.3c-.4-.6,1.8-2.7,4.6-2.9s4.7,1.2,4.5,2-1.8-1-4.6-.7-4.3,2-4.5,1.6Z"/>
      <path class="cls-1" d="M331,189.9c.2,4.2-.7,12.8-7.9,18.7-.4.3-.9,0-.7-.5,0,0,2.8-2.8,5.4-9,1.7-4.1,2.1-9.3,2.1-9.3.2-.6,1.1-.4,1.1.2Z"/>
      <path class="cls-1" d="M379.2,251.9c-4.6.6-7.3-1.8-7.8-1.3s2.9,3.9,8,3.1c5.5-.9,7.8-5,7.3-5.3s-2.8,2.9-7.4,3.6Z"/>
      <path class="cls-1" d="M256.1,248.4c3,3.7,8.7,6.9,15.1,6.2s.8-1.1,0-1.2c-4.1-.6-9.1-1.8-14.4-6-.6-.4-1.2.3-.8.9Z"/>
    </g>
  </g>
</svg>